<svg width="1807" height="362" viewBox="0 0 1807 362" fill="none" xmlns="http://www.w3.org/2000/svg">
<path d="M146.785 1.07031C34.8697 1.59252 -11.5532 103.504 3.60009 186.158C3.61095 186.207 3.60929 186.262 3.62029 186.306C3.64216 186.434 3.66366 186.565 3.68662 186.683C27.1491 288.384 77.4107 329.24 145.613 361.669C165.062 354.279 271.198 296.79 288.197 185.455C293.586 133.428 282.225 9.42554 146.785 1.07031ZM145.898 19.6872C180.081 19.6874 212.863 33.2663 237.034 57.437C261.204 81.6077 274.783 114.39 274.783 148.572C274.783 182.755 261.204 215.538 237.034 239.709C212.863 263.879 180.081 277.458 145.898 277.458C111.716 277.458 78.9337 263.879 54.7631 239.709C30.5925 215.538 17.0134 182.755 17.0133 148.572C17.0134 114.39 30.5925 81.6077 54.7631 57.437C78.9337 33.2663 111.716 19.6873 145.898 19.6872Z" fill="#244473"/>
<path d="M514.341 3.18672C513.013 1.85903 511.243 0.53125 509.473 0.53125H447.51C444.412 0.53125 441.756 2.74422 440.871 5.84234L407.677 134.194C406.792 137.735 408.562 141.275 412.103 142.161C415.643 142.603 419.184 140.833 420.069 137.292L452.378 13.3664H500.621C489.999 53.6423 443.084 231.122 438.658 248.383C436.888 254.579 432.462 257.235 428.479 257.235C424.495 257.235 420.955 253.694 419.184 247.94C412.545 222.27 355.451 7.61262 355.009 5.39966C354.124 2.30155 351.911 0.53125 348.812 0.53125H281.981C280.211 0.53125 277.998 1.85903 277.113 3.18672C275.785 4.51451 275.343 6.72739 275.785 8.49781L356.336 349.736C356.336 350.622 356.779 351.064 357.222 351.507V351.949C357.222 352.392 358.107 352.835 358.549 353.277H358.992C358.992 353.72 359.877 354.605 360.32 354.605H360.762C361.205 354.605 362.09 354.605 362.533 354.605H420.069C423.61 354.605 426.266 351.949 426.266 348.409C426.266 344.868 423.61 342.212 420.069 342.212H367.844L289.948 13.3664H343.944C352.353 45.233 401.038 227.581 406.792 251.038C410.332 265.201 420.512 270.07 428.479 270.07C438.658 270.07 447.51 262.546 451.051 251.481C456.362 232.007 514.784 10.7109 515.226 8.49796C515.669 6.72754 515.226 4.51451 514.341 3.18672Z" fill="#244473"/>
<path d="M701.475 354.605C705.016 354.605 707.672 351.949 707.672 348.408V288.659C707.672 285.118 705.016 282.02 701.475 282.02H607.204V244.842C607.204 241.301 604.548 238.203 601.007 238.203C597.467 238.203 594.369 241.301 594.369 244.842V288.659C594.369 292.199 597.467 294.855 601.007 294.855H695.279V342.212H541.258V235.99C541.258 221.385 553.65 209.435 568.256 209.435H677.575C681.116 209.435 684.214 206.779 684.214 203.238V146.144C684.214 142.603 681.116 139.948 677.575 139.948H607.204V73.1163H701.475C705.016 73.1163 707.672 70.4607 707.672 66.92V7.17008C707.672 3.62933 705.016 0.53125 701.475 0.53125H535.062C531.521 0.53125 528.865 3.62933 528.865 7.17008V176.24C528.865 179.781 531.521 182.436 535.062 182.436C538.602 182.436 541.258 179.781 541.258 176.24V13.3664H695.279V60.7237H601.007C597.467 60.7237 594.369 63.3792 594.369 66.92V146.144C594.369 149.685 597.467 152.783 601.007 152.783H671.822V197.042H567.813H566.928C545.684 197.485 528.865 214.746 528.865 235.548V235.99V348.409C528.865 351.949 531.521 354.605 535.062 354.605L701.475 354.605Z" fill="#244473"/>
<path d="M921.424 354.605C923.194 354.605 924.965 354.162 926.292 352.392C927.178 350.622 928.063 348.409 927.178 346.638L882.919 212.09C883.362 211.648 884.247 211.205 884.247 211.205C906.376 193.059 919.654 157.209 919.654 115.605C919.654 83.7384 912.572 57.183 898.852 35.9386C876.723 0.973781 841.758 0.53125 811.219 0.53125H731.111C727.57 0.53125 724.914 3.62933 724.914 7.17008V129.768C724.914 133.309 727.57 135.964 731.111 135.964C734.651 135.964 737.307 133.309 737.307 129.768V13.3664H811.219C841.315 13.3664 869.641 13.3663 888.23 43.02C900.622 61.6089 907.261 85.9513 907.261 115.605C907.261 152.783 894.869 185.977 876.28 201.025C874.952 202.353 873.624 203.681 871.854 204.123C870.526 205.451 869.199 207.222 869.199 208.992C869.199 209.877 869.199 211.205 869.641 211.648L912.573 342.212H856.806L824.054 221.385C824.054 220.057 823.169 218.729 822.284 218.286C821.399 216.959 820.071 216.074 818.301 216.074H795.728C792.188 216.074 789.09 218.729 789.09 222.27V342.212H737.307V188.19C737.307 172.699 741.29 168.716 756.781 168.716H811.219C840.43 168.716 851.495 153.225 851.495 110.294C851.495 96.1311 851.495 54.5274 811.219 54.5274H795.728C792.188 54.5274 789.09 57.1829 789.09 60.7237V120.916C789.09 124.457 792.188 127.555 795.728 127.555C799.269 127.555 801.482 124.457 801.482 120.916V67.3626H811.219C831.136 67.3626 838.66 79.7552 838.66 110.294C838.66 153.225 827.595 156.323 811.219 156.323H756.781C734.208 156.323 724.914 165.618 724.914 188.19V348.408C724.914 351.949 727.57 354.605 731.11 354.605H795.728C799.269 354.605 801.482 351.949 801.482 348.408V228.909H813.432L845.741 350.179C846.627 352.834 848.839 354.605 851.937 354.605L921.424 354.605Z" fill="#244473"/>
<path d="M1011.6 355.047C1013.37 355.047 1014.7 354.604 1015.58 353.277C1016.91 352.391 1017.35 350.621 1017.35 348.851V236.433C1017.35 232.892 1015.14 230.236 1011.6 230.236C1008.06 230.236 1004.96 232.892 1004.96 236.433V342.212H951.852V13.8088H1004.96V166.946C1004.96 194.829 1011.16 209.435 1043.91 209.435H1059.84V348.408C1059.84 351.949 1062.5 354.605 1066.04 354.605H1131.54C1135.08 354.605 1138.18 351.949 1138.18 348.408V7.61246C1138.18 4.07181 1135.08 0.973633 1131.54 0.973633H1066.04C1062.5 0.973633 1059.84 4.07181 1059.84 7.61246V161.635C1059.84 165.175 1062.5 167.831 1066.04 167.831C1069.58 167.831 1072.24 165.175 1072.24 161.635V13.8088H1125.35V342.212H1072.24V203.238C1072.24 199.697 1069.58 197.042 1066.04 197.042H1043.91C1020.9 197.042 1017.35 190.403 1017.35 166.946V7.61246C1017.35 4.07181 1015.14 0.973633 1011.6 0.973633H945.655C942.115 0.973633 939.459 4.07181 939.459 7.61246V348.408C939.459 351.949 942.115 354.605 945.655 354.605L1011.16 355.047L1011.6 355.047Z" fill="#244473"/>
<path d="M1329.83 354.605C1333.38 354.605 1336.03 351.949 1336.03 348.408V288.659C1336.03 285.118 1333.38 282.02 1329.83 282.02H1235.56V244.842C1235.56 241.301 1232.91 238.203 1229.37 238.203C1225.83 238.203 1222.73 241.301 1222.73 244.842V288.659C1222.73 292.199 1225.83 294.855 1229.37 294.855H1323.64V342.212H1169.62V235.99C1169.62 221.385 1182.01 209.435 1196.62 209.435H1305.94C1309.48 209.435 1312.57 206.779 1312.57 203.238V146.144C1312.57 142.603 1309.48 139.948 1305.94 139.948H1235.56V73.1163H1329.83C1333.38 73.1163 1336.03 70.4607 1336.03 66.92V7.17008C1336.03 3.62933 1333.38 0.53125 1329.83 0.53125H1163.42C1159.88 0.53125 1157.22 3.62933 1157.22 7.17008V176.24C1157.22 179.781 1159.88 182.436 1163.42 182.436C1166.96 182.436 1169.62 179.781 1169.62 176.24V13.3664H1323.64V60.7237H1229.37C1225.83 60.7237 1222.73 63.3792 1222.73 66.92V146.144C1222.73 149.685 1225.83 152.783 1229.37 152.783H1300.18V197.042H1196.17H1195.29C1174.04 197.485 1157.22 214.746 1157.22 235.548V235.99V348.409C1157.22 351.949 1159.88 354.605 1163.42 354.605L1329.83 354.605Z" fill="#244473"/>
<path d="M1593.46 347.081L1562.93 218.286L1511.58 5.84234C1510.7 2.74422 1508.49 0.53125 1505.39 0.53125H1437.23C1434.13 0.53125 1431.48 2.74422 1430.59 5.84234L1379.69 218.286L1349.15 347.081C1348.71 348.851 1349.15 351.064 1350.48 352.392C1351.37 353.72 1353.58 354.605 1355.35 354.605H1419.97H1421.74C1422.62 354.605 1423.51 354.162 1424.39 353.277C1425.28 352.834 1425.72 351.949 1426.16 351.064C1426.16 351.064 1426.61 349.736 1426.61 349.294L1445.2 247.055C1448.29 230.679 1452.28 225.811 1469.98 225.811L1470.87 225.368L1471.31 225.811H1498.75H1499.64C1500.08 225.811 1500.96 225.368 1501.41 225.368C1502.29 224.925 1503.18 224.04 1503.62 223.597C1504.06 222.712 1504.95 221.827 1504.95 220.942V218.729V218.286L1477.51 69.5751C1477.06 66.9196 1474.85 64.7066 1471.31 64.7066C1468.21 64.7066 1465.56 66.9196 1465.11 69.5751L1444.75 178.895C1444.31 182.436 1446.52 185.092 1450.07 185.977C1453.61 186.42 1457.15 184.649 1457.59 181.108L1471.31 105.868L1491.23 212.975H1471.31H1470.87H1469.98C1444.31 212.975 1436.34 225.368 1432.8 244.841L1415.1 342.212H1363.32L1392.53 221.384L1442.1 13.3659H1500.52L1550.53 220.942L1579.3 342.212H1527.96L1519.99 297.953L1515.57 273.61C1515.57 270.512 1512.03 267.856 1508.49 268.299H1476.18C1472.64 268.299 1469.54 271.397 1469.54 274.938C1469.54 278.479 1472.64 281.134 1476.18 281.134H1504.06L1507.6 300.608L1516.9 349.293C1516.9 349.736 1517.34 351.064 1517.34 351.064C1517.78 351.949 1518.22 352.834 1519.11 353.277C1519.55 353.719 1520.88 354.604 1521.32 354.604H1523.09H1587.71C1589.48 354.604 1591.69 353.719 1592.58 352.391C1593.46 351.064 1593.46 347.081 1593.46 347.081Z" fill="#244473"/>
<path d="M1800.17 354.605C1801.94 354.605 1803.71 354.162 1805.03 352.392C1805.92 350.622 1806.8 348.409 1805.92 346.638L1761.66 212.09C1762.1 211.648 1762.99 211.205 1762.99 211.205C1785.12 193.059 1798.4 157.209 1798.4 115.605C1798.4 83.7384 1791.31 57.183 1777.59 35.9386C1755.46 0.973781 1720.5 0.53125 1689.96 0.53125H1609.85C1606.31 0.53125 1603.66 3.62933 1603.66 7.17008V129.768C1603.66 133.309 1606.31 135.964 1609.85 135.964C1613.39 135.964 1616.05 133.309 1616.05 129.768V13.3664H1689.96C1720.06 13.3664 1748.38 13.3663 1766.97 43.02C1779.36 61.6089 1786 85.9513 1786 115.605C1786 152.783 1773.61 185.977 1755.02 201.025C1753.69 202.353 1752.37 203.681 1750.6 204.123C1749.27 205.451 1747.94 207.222 1747.94 208.992C1747.94 209.877 1747.94 211.205 1748.38 211.648L1791.31 342.212H1735.55L1702.8 221.385C1702.8 220.057 1701.91 218.729 1701.03 218.286C1700.14 216.959 1698.81 216.074 1697.04 216.074H1674.47C1670.93 216.074 1667.83 218.729 1667.83 222.27V342.212H1616.05V188.19C1616.05 172.699 1620.03 168.716 1635.52 168.716H1689.96C1719.17 168.716 1730.24 153.225 1730.24 110.294C1730.24 96.1311 1730.24 54.5274 1689.96 54.5274H1674.47C1670.93 54.5274 1667.83 57.1829 1667.83 60.7237V120.916C1667.83 124.457 1670.93 127.555 1674.47 127.555C1678.01 127.555 1680.22 124.457 1680.22 120.916V67.3626H1689.96C1709.88 67.3626 1717.4 79.7552 1717.4 110.294C1717.4 153.225 1706.34 156.323 1689.96 156.323H1635.52C1612.95 156.323 1603.66 165.618 1603.66 188.19V348.408C1603.66 351.949 1606.31 354.605 1609.85 354.605H1674.47C1678.01 354.605 1680.22 351.949 1680.22 348.408V228.909H1692.17L1724.48 350.179C1725.37 352.834 1727.58 354.605 1730.68 354.605L1800.17 354.605Z" fill="#244473"/>
</svg>
